# xmcd
# 
# Track frame offsets:
#     150
#     16715
#     31874
#     44666
#     60114
#     73293
#     88683
#     103381
#     117480
#     132144
#     146986
# 
# Disc length: 2152
# 
# Revision: 2
# Processed by: cddbd v1.5.2PL0 Copyright (c) Steve Scherf et al.
# Submitted via: fre:ac v1.0.31
# 
DISCID=9d08660b
DTITLE=Dustin Lynch - Tullahoma
DYEAR=2020
DGENRE=Country
TTITLE0=Momma's House
TTITLE1=Dirt Road
TTITLE2=Thinking 'Bout You
TTITLE3=Ridin' Roads
TTITLE4=Old Country Song
TTITLE5=The World Ain't Yours And Mine
TTITLE6=Country Star
TTITLE7=Workin' On You
TTITLE8=Little Town Livin'
TTITLE9=Red Dirt, Blue Eyes
TTITLE10=Good Girl
EXTD=
EXTT0=
EXTT1=
EXTT2=
EXTT3=
EXTT4=
EXTT5=
EXTT6=
EXTT7=
EXTT8=
EXTT9=
EXTT10=
PLAYORDER=
